PathFileType	4	(X/Y/Z)	/Users/itak/Documents/Research/Walk-IL/dataset/trc/00236_00009.trc
DataRate	CameraRate	NumFrames	NumMarkers	Units	OrigDataRate	OrigDataStartFrame	OrigNumFrames
100.000000	100.000000	4	53	mm	100.000000	204	819
Frame#	Time	RPSI			LPSI			L3			STRN			T10			C7			CLAV			RBAK			LBAK			LSHO			LUPA			LAEL			LAOL			LWTS			LWPS			LFRA			LIFD			LHPS			LHTS			RSHO			RUPA			RAEL			RAOL			RWTS			RWPS			RFRA			RIFD			RHTS			RHPS			RBHD			LFHD			RFHD			LBHD			LHIP			RHIP			RASI			LASI			LKNE			LTHI			LANK			LTIP			LTOE			LMT5			LHEE			RKNE			RTHI			RANK			RTIP			RTOE			RMT1			RMT5			RHEE			LMT1			
		X1	Y1	Z1	X2	Y2	Z2	X3	Y3	Z3	X4	Y4	Z4	X5	Y5	Z5	X6	Y6	Z6	X7	Y7	Z7	X8	Y8	Z8	X9	Y9	Z9	X10	Y10	Z10	X11	Y11	Z11	X12	Y12	Z12	X13	Y13	Z13	X14	Y14	Z14	X15	Y15	Z15	X16	Y16	Z16	X17	Y17	Z17	X18	Y18	Z18	X19	Y19	Z19	X20	Y20	Z20	X21	Y21	Z21	X22	Y22	Z22	X23	Y23	Z23	X24	Y24	Z24	X25	Y25	Z25	X26	Y26	Z26	X27	Y27	Z27	X28	Y28	Z28	X29	Y29	Z29	X30	Y30	Z30	X31	Y31	Z31	X32	Y32	Z32	X33	Y33	Z33	X34	Y34	Z34	X35	Y35	Z35	X36	Y36	Z36	X37	Y37	Z37	X38	Y38	Z38	X39	Y39	Z39	X40	Y40	Z40	X41	Y41	Z41	X42	Y42	Z42	X43	Y43	Z43	X44	Y44	Z44	X45	Y45	Z45	X46	Y46	Z46	X47	Y47	Z47	X48	Y48	Z48	X49	Y49	Z49	X50	Y50	Z50	X51	Y51	Z51	X52	Y52	Z52	X53	Y53	Z53	

205	2.04	574.029541015625	1029.880004882812	648.0109252929688	479.9052734375	1023.806091308594	574.765869140625	516.9970092773438	1114.366577148438	602.1500854492188	669.0736083984375	1278.139282226562	386.8064575195312	525.0260620117188	1241.558715820312	603.0696411132812	572.8373413085938	1496.35546875	529.57470703125	662.0275268554688	1397.922241210938	401.3263854980469	583.3040771484375	1364.547241210938	644.950927734375	468.3015747070312	1461.329345703125	485.5227355957031	472.2327270507812	1453.805053710938	379.8847961425781	379.8619079589844	1340.6669921875	374.0699157714844	346.0508117675781	1131.097412109375	374.9268493652344	348.0001220703125	1124.690673828125	462.4114379882812	435.1159362792969	891.32958984375	349.5476379394531	354.8096008300781	875.3445434570312	330.2997436523438	341.8183898925781	1021.948913574219	359.2657470703125	424.9961853027344	697.9511108398438	365.4320068359375	364.39453125	785.7326049804688	327.6096801757812	432.9468078613281	786.7353515625	320.2943725585938	741.8055419921875	1448.515625	580.2267456054688	784.8529052734375	1386.4833984375	637.0628662109375	810.8015747070312	1110.50537109375	694.8672485351562	716.934814453125	1100.272583007812	677.0015869140625	854.3981323242188	888.8872680664062	570.7958374023438	879.5388793945312	879.9409790039062	650.8795776367188	837.1932373046875	1041.542114257812	683.7942504882812	859.5064086914062	695.6536865234375	567.0447387695312	890.874755859375	767.635009765625	553.7012329101562	903.8189697265625	771.4813232421875	624.7671508789062	671.8323364257812	1654.65380859375	498.9199523925781	680.6431274414062	1649.550415039062	271.2872924804688	768.830322265625	1644.641235351562	317.938232421875	572.0799560546875	1655.74462890625	397.4228210449219	437.5390319824219	956.5991821289062	409.5579833984375	718.8551635742188	991.4559936523438	643.0477905273438	753.2605590820312	1025.402954101562	541.127685546875	538.2987670898438	998.1192626953125	363.0394287109375	594.13916015625	514.5692138671875	270.6139526367188	526.1737060546875	641.8121948242188	305.7297973632812	656.4428100585938	29.1604175567627	290.3960571289062	609.4330444335938	282.0809631347656	287.9528198242188	759.85205078125	97.29620361328125	114.8788757324219	676.1377563476562	54.36252975463867	167.644287109375	687.892333984375	30.47368240356445	365.0263977050781	656.984130859375	503.9951171875	654.1024780273438	735.5167236328125	763.486083984375	623.2339477539062	511.4355773925781	35.1640510559082	745.1959228515625	631.9300537109375	386.6075439453125	658.238525390625	673.7369995117188	38.31553268432617	602.523681640625	604.8875122070312	37.95462799072266	593.975830078125	619.2081298828125	30.36184310913086	716.2962036132812	428.6731262207031	40.10943222045898	725.5712890625	785.5210571289062	76.27881622314453	186.8206176757812	
206	2.05	578.4493408203125	1028.476440429688	642.644287109375	484.0187377929688	1022.093872070312	569.9342041015625	520.998046875	1112.69384765625	597.2213745117188	671.294189453125	1276.951293945312	380.9600524902344	528.7674560546875	1239.9150390625	598.2188720703125	575.4131469726562	1494.891235351562	524.47216796875	663.96484375	1396.697021484375	395.5713195800781	586.985107421875	1363.069702148438	639.723388671875	470.7398376464844	1459.543823242188	481.171630859375	473.8524475097656	1452.020751953125	375.47998046875	381.6115112304688	1338.705688476562	370.4345092773438	348.02685546875	1129.118041992188	371.8834838867188	350.89013671875	1122.78466796875	459.4012756347656	436.7488708496094	889.1806640625	346.114501953125	356.3633117675781	873.411376953125	327.2789001464844	343.6247863769531	1019.9765625	356.3491821289062	426.162109375	695.9198608398438	362.5401611328125	365.6753540039062	783.75927734375	324.8139038085938	434.1557312011719	784.5083618164062	317.194580078125	744.8700561523438	1447.394897460938	573.9729614257812	788.4104614257812	1385.414184570312	630.4940185546875	815.1790161132812	1109.462036132812	688.089599609375	721.31982421875	1099.216552734375	671.1210327148438	857.8793334960938	887.96337890625	563.4949951171875	883.7329711914062	878.95361328125	643.3594360351562	841.5514526367188	1040.513671875	676.7572631835938	863.0252685546875	694.737060546875	559.5368041992188	894.25732421875	766.7396240234375	545.98974609375	907.7736206054688	770.516357421875	616.9381103515625	674.0942993164062	1653.42626953125	493.2021484375	680.9823608398438	1648.447021484375	265.6698303222656	769.6365966796875	1643.647583007812	311.4390258789062	573.6193237304688	1654.504760742188	392.5630187988281	441.1277465820312	954.6820678710938	404.8800964355469	723.3607177734375	990.3197021484375	637.0841064453125	757.2833251953125	1024.377319335938	535.0343627929688	541.503662109375	996.5621948242188	357.8955993652344	597.2720947265625	512.8201904296875	266.3502807617188	529.0896606445312	639.7225341796875	301.5213317871094	661.6738891601562	28.34085655212402	284.0748291015625	613.821533203125	280.3460388183594	282.8126831054688	762.0264892578125	96.01302337646484	106.7235488891602	679.3120727539062	53.24214172363281	161.1012420654297	694.6424560546875	29.58572578430176	358.2356567382812	659.243896484375	503.5374145507812	650.9309692382812	739.3211669921875	762.3826904296875	618.4542846679688	511.4877624511719	35.58687591552734	745.0587158203125	633.568359375	386.2896118164062	655.9168701171875	673.7703247070312	38.30503463745117	602.5486450195312	604.96875	38.03784561157227	594.0772705078125	619.2468872070312	30.30543518066406	716.3427734375	428.8279113769531	41.03205490112305	725.6434936523438	789.0701904296875	74.92414855957031	178.1419830322266	
207	2.06	582.8475952148438	1027.0732421875	637.101806640625	488.1156005859375	1020.411682128906	564.88037109375	524.9685668945312	1110.976928710938	592.0750122070312	673.4851684570312	1275.822265625	374.9910583496094	532.4200439453125	1238.233520507812	593.1880493164062	577.8681030273438	1493.423461914062	519.2691040039062	665.8357543945312	1395.521362304688	389.7207641601562	590.5321044921875	1361.564453125	634.3496704101562	473.0759887695312	1457.723754882812	476.6927490234375	475.387939453125	1450.22607421875	370.9650573730469	383.3320922851562	1336.69580078125	366.650146484375	350.064697265625	1127.085083007812	368.6042785644531	353.825439453125	1120.79541015625	456.1342468261719	438.5844421386719	887.0789794921875	342.3348999023438	358.0797119140625	871.4505004882812	323.9346923828125	345.5369873046875	1017.952880859375	353.1584167480469	427.5514526367188	693.8707275390625	359.26123046875	367.1734924316406	781.7633666992188	321.6592407226562	435.5797119140625	782.2896728515625	313.759521484375	747.811279296875	1446.307250976562	567.66064453125	791.838623046875	1384.3681640625	623.8636474609375	819.4683227539062	1108.443237304688	681.201416015625	725.6300659179688	1098.162841796875	665.09033203125	861.3693237304688	887.0521240234375	556.1531982421875	887.8961181640625	878.0068359375	635.8031616210938	845.8328247070312	1039.522216796875	669.627197265625	866.5964965820312	693.83447265625	552.0465087890625	897.6695556640625	765.8594970703125	538.2808837890625	911.7506103515625	769.594970703125	609.1146850585938	676.2294311523438	1652.243041992188	487.4230651855469	681.213623046875	1647.401977539062	260.0221557617188	770.3355712890625	1642.721069335938	304.9010620117188	575.0863647460938	1653.314208984375	387.6473693847656	444.7632141113281	952.8038940429688	399.9687805175781	727.8404541015625	989.17626953125	630.9749755859375	761.3128051757812	1023.359497070312	528.8021240234375	544.7667236328125	995.0319213867188	352.55615234375	600.5421752929688	511.1329345703125	261.8682556152344	532.2031860351562	637.7054443359375	297.0751647949219	666.0560913085938	27.6796817779541	279.0175476074219	617.9522094726562	278.6486206054688	278.0046997070312	763.7120971679688	93.83261871337891	99.75126647949219	681.8235473632812	51.77427291870117	155.7816314697266	700.4541625976562	28.96208763122559	352.686279296875	661.6718139648438	503.0511169433594	647.5339965820312	743.2210083007812	761.2699584960938	613.5166015625	511.5658874511719	36.10792922973633	744.9280395507812	635.3689575195312	385.9438781738281	653.40771484375	673.8103637695312	38.28262710571289	602.5709228515625	605.0510864257812	38.12626266479492	594.181640625	619.2926025390625	30.2487735748291	716.3783569335938	429.0093383789062	42.07828521728516	725.7404174804688	791.9769897460938	72.82696533203125	170.7076416015625	
208	2.07	587.23291015625	1025.693969726562	631.4022216796875	492.1901550292969	1018.795959472656	559.62255859375	528.912109375	1109.24462890625	586.7201538085938	675.6451416015625	1274.775512695312	368.9007568359375	535.9920654296875	1236.546020507812	587.9835815429688	580.2120971679688	1491.979370117188	513.966796875	667.644287109375	1394.417602539062	383.7750244140625	593.94970703125	1360.0576171875	628.8311157226562	475.3129577636719	1455.898681640625	472.0889282226562	476.8425903320312	1448.444091796875	366.3460388183594	385.0304260253906	1334.660766601562	362.7215270996094	352.1701049804688	1125.021118164062	365.0802917480469	356.8034362792969	1118.743896484375	452.6026000976562	440.6203308105469	885.0426635742188	338.2046508789062	359.96142578125	869.4795532226562	320.2660827636719	347.56201171875	1015.900207519531	349.6856079101562	429.1807556152344	691.8181762695312	355.5826110839844	368.8943786621094	779.763671875	318.1360168457031	437.2273559570312	780.1028442382812	309.9721984863281	750.6367797851562	1445.277709960938	561.289794921875	795.140380859375	1383.367919921875	617.1734619140625	823.6611328125	1107.469360351562	674.1981201171875	729.8548583984375	1097.133666992188	658.8880004882812	864.8687133789062	886.1703491210938	548.7725219726562	892.0218505859375	877.1209716796875	628.2163696289062	850.027587890625	1038.587646484375	662.402099609375	870.2276611328125	692.962158203125	544.58349609375	901.1170043945312	765.0114135742188	530.5849609375	915.7532348632812	768.7376708984375	601.307861328125	678.2431640625	1651.128540039062	481.5804138183594	681.3408813476562	1646.446166992188	254.3269500732422	770.92529296875	1641.891967773438	298.3172912597656	576.4719848632812	1652.193359375	382.6712341308594	448.4295959472656	951.021728515625	394.8424072265625	732.2965698242188	988.0400390625	624.7191162109375	765.3467407226562	1022.365051269531	522.4269409179688	548.0728149414062	993.564697265625	347.0400085449219	603.9505004882812	509.5723571777344	257.1163635253906	535.549560546875	635.8449096679688	292.3468933105469	669.6111450195312	27.20092010498047	275.1821594238281	621.829345703125	277.0455932617188	273.4697875976562	764.9951171875	90.81147003173828	93.93614196777344	683.7283325195312	50.02497482299805	151.6376953125	705.3233032226562	28.61030387878418	348.3441467285156	664.3004150390625	502.539794921875	643.8832397460938	747.2191772460938	760.1602172851562	608.4035034179688	511.6861572265625	36.75002288818359	744.8070678710938	637.3560180664062	385.5742797851562	650.6903076171875	673.8627319335938	38.24367904663086	602.5880126953125	605.1382446289062	38.2213020324707	594.2854614257812	619.348876953125	30.19207382202148	716.3988037109375	429.2161254882812	43.27664184570312	725.8572998046875	794.2963256835938	70.04275512695312	164.5112762451172	
